<svg xmlns="http://www.w3.org/2000/svg" xmlns:xlink="http://www.w3.org/1999/xlink" width="500" zoomAndPan="magnify" viewBox="0 0 375 374.999991" height="500" preserveAspectRatio="xMidYMid meet" version="1.0"><defs><g/><clipPath id="92d9f5326b"><path d="M 118.03125 90 L 177 90 L 177 225.722656 L 118.03125 225.722656 Z M 118.03125 90 " clip-rule="nonzero"/></clipPath><clipPath id="52d8645663"><path d="M 187 75.722656 L 256.78125 75.722656 L 256.78125 225.722656 L 187 225.722656 Z M 187 75.722656 " clip-rule="nonzero"/></clipPath></defs><rect x="-37.5" width="450" fill="#ffffff" y="-37.499999" height="449.999989" fill-opacity="1"/><rect x="-37.5" width="450" fill="#291f30" y="-37.499999" height="449.999989" fill-opacity="1"/><g clip-path="url(#92d9f5326b)"><path fill="#fffdfd" d="M 158.628906 202.203125 C 149.542969 198.125 141.730469 191.710938 135.957031 183.726562 L 135.957031 90.988281 C 128.902344 96.40625 122.832031 103.050781 118.070312 110.597656 L 118.070312 190.757812 C 122.832031 198.308594 128.902344 204.949219 135.957031 210.367188 C 142.703125 215.546875 150.355469 219.609375 158.628906 222.277344 C 164.324219 224.113281 170.316406 225.289062 176.515625 225.714844 L 176.515625 175.039062 L 158.628906 175.039062 Z M 158.628906 202.203125 " fill-opacity="1" fill-rule="nonzero"/></g><g clip-path="url(#52d8645663)"><path fill="#fffdfd" d="M 246.101562 111.761719 C 242.53125 105.863281 238.171875 100.496094 233.167969 95.808594 L 225.558594 115.101562 L 222.875 121.90625 L 218.121094 107.519531 L 209.242188 80.65625 C 208.109375 80.210938 206.964844 79.792969 205.808594 79.402344 C 200.390625 77.570312 194.691406 76.339844 188.796875 75.789062 C 188.503906 75.765625 188.214844 75.738281 187.921875 75.714844 L 187.921875 225.640625 C 194.128906 225.132812 200.121094 223.875 205.808594 221.953125 L 205.808594 127.265625 L 212.625 147.894531 L 221.378906 174.453125 L 231.640625 148.433594 L 231.640625 148.429688 L 236.367188 136.445312 C 237.550781 140.992188 238.179688 145.761719 238.179688 150.679688 C 238.179688 155.148438 237.660156 159.496094 236.675781 163.667969 C 236.273438 165.382812 235.792969 167.070312 235.234375 168.722656 C 233.855469 172.8125 232.019531 176.691406 229.792969 180.300781 L 245.167969 191.09375 C 252.621094 179.421875 256.941406 165.554688 256.941406 150.679688 C 256.941406 136.433594 252.980469 123.113281 246.101562 111.761719 Z M 246.101562 111.761719 " fill-opacity="1" fill-rule="nonzero"/></g><g fill="#fffdfd" fill-opacity="1"><g transform="translate(68.409369, 271.402686)"><g><path d="M 21.796875 0 L 2.796875 0 L 2.796875 -28 L 9.203125 -28 L 9.203125 -6.203125 L 21.796875 -6.203125 Z M 21.796875 0 "/></g></g></g><g fill="#fffdfd" fill-opacity="1"><g transform="translate(88.727151, 271.402686)"><g><path d="M 8.875 0.40625 C 7.351562 0.40625 6.023438 0.125 4.890625 -0.4375 C 3.765625 -1 2.898438 -1.753906 2.296875 -2.703125 C 1.703125 -3.648438 1.40625 -4.707031 1.40625 -5.875 C 1.40625 -7.90625 2.125 -9.53125 3.5625 -10.75 C 5 -11.976562 7.078125 -12.59375 9.796875 -12.59375 L 14.28125 -12.59375 L 14.28125 -12.953125 C 14.28125 -13.835938 13.992188 -14.566406 13.421875 -15.140625 C 12.847656 -15.710938 12.109375 -16 11.203125 -16 C 10.367188 -16 9.710938 -15.816406 9.234375 -15.453125 C 8.753906 -15.097656 8.410156 -14.679688 8.203125 -14.203125 L 2.28125 -14.203125 C 2.414062 -15.316406 2.847656 -16.378906 3.578125 -17.390625 C 4.316406 -18.410156 5.332031 -19.234375 6.625 -19.859375 C 7.914062 -20.484375 9.441406 -20.796875 11.203125 -20.796875 C 13.035156 -20.796875 14.640625 -20.445312 16.015625 -19.75 C 17.390625 -19.0625 18.445312 -18.125 19.1875 -16.9375 C 19.9375 -15.75 20.3125 -14.421875 20.3125 -12.953125 L 20.3125 0 L 15.078125 0 L 14.6875 -1.765625 L 14.484375 -1.765625 C 14.023438 -1.203125 13.296875 -0.695312 12.296875 -0.25 C 11.296875 0.1875 10.15625 0.40625 8.875 0.40625 Z M 10.203125 -4.28125 C 11.484375 -4.28125 12.484375 -4.625 13.203125 -5.3125 C 13.921875 -6.007812 14.28125 -6.945312 14.28125 -8.125 L 14.28125 -8.59375 L 10.59375 -8.59375 C 9.5625 -8.59375 8.785156 -8.398438 8.265625 -8.015625 C 7.742188 -7.628906 7.484375 -7.101562 7.484375 -6.4375 C 7.484375 -5.769531 7.710938 -5.242188 8.171875 -4.859375 C 8.640625 -4.472656 9.316406 -4.28125 10.203125 -4.28125 Z M 10.203125 -4.28125 "/></g></g></g><g fill="#fffdfd" fill-opacity="1"><g transform="translate(109.164913, 271.402686)"><g><path d="M 10.40625 0.40625 C 8.851562 0.40625 7.46875 0.0546875 6.25 -0.640625 C 5.039062 -1.335938 4.097656 -2.332031 3.421875 -3.625 C 2.742188 -4.914062 2.40625 -6.414062 2.40625 -8.125 L 2.40625 -20.40625 L 8.4375 -20.40625 L 8.4375 -9.125 C 8.4375 -8 8.773438 -7.082031 9.453125 -6.375 C 10.140625 -5.664062 11.039062 -5.3125 12.15625 -5.3125 C 13.28125 -5.3125 14.179688 -5.664062 14.859375 -6.375 C 15.535156 -7.082031 15.875 -8 15.875 -9.125 L 15.875 -20.40625 L 21.921875 -20.40625 L 21.921875 0 L 16.71875 0 L 16.3125 -1.796875 L 16.125 -1.796875 C 15.582031 -1.179688 14.804688 -0.660156 13.796875 -0.234375 C 12.785156 0.191406 11.65625 0.40625 10.40625 0.40625 Z M 10.40625 0.40625 "/></g></g></g><g fill="#fffdfd" fill-opacity="1"><g transform="translate(131.402498, 271.402686)"><g><path d="M 2.40625 0 L 2.40625 -20.40625 L 7.59375 -20.40625 L 8 -18.796875 L 8.203125 -18.796875 C 8.492188 -19.222656 8.957031 -19.597656 9.59375 -19.921875 C 10.238281 -20.242188 10.972656 -20.40625 11.796875 -20.40625 L 15.6875 -20.40625 L 15.6875 -14.6875 L 12.078125 -14.6875 C 9.648438 -14.6875 8.4375 -13.441406 8.4375 -10.953125 L 8.4375 0 Z M 2.40625 0 "/></g></g></g><g fill="#fffdfd" fill-opacity="1"><g transform="translate(145.560887, 271.402686)"><g><path d="M 8.875 0.40625 C 7.351562 0.40625 6.023438 0.125 4.890625 -0.4375 C 3.765625 -1 2.898438 -1.753906 2.296875 -2.703125 C 1.703125 -3.648438 1.40625 -4.707031 1.40625 -5.875 C 1.40625 -7.90625 2.125 -9.53125 3.5625 -10.75 C 5 -11.976562 7.078125 -12.59375 9.796875 -12.59375 L 14.28125 -12.59375 L 14.28125 -12.953125 C 14.28125 -13.835938 13.992188 -14.566406 13.421875 -15.140625 C 12.847656 -15.710938 12.109375 -16 11.203125 -16 C 10.367188 -16 9.710938 -15.816406 9.234375 -15.453125 C 8.753906 -15.097656 8.410156 -14.679688 8.203125 -14.203125 L 2.28125 -14.203125 C 2.414062 -15.316406 2.847656 -16.378906 3.578125 -17.390625 C 4.316406 -18.410156 5.332031 -19.234375 6.625 -19.859375 C 7.914062 -20.484375 9.441406 -20.796875 11.203125 -20.796875 C 13.035156 -20.796875 14.640625 -20.445312 16.015625 -19.75 C 17.390625 -19.0625 18.445312 -18.125 19.1875 -16.9375 C 19.9375 -15.75 20.3125 -14.421875 20.3125 -12.953125 L 20.3125 0 L 15.078125 0 L 14.6875 -1.765625 L 14.484375 -1.765625 C 14.023438 -1.203125 13.296875 -0.695312 12.296875 -0.25 C 11.296875 0.1875 10.15625 0.40625 8.875 0.40625 Z M 10.203125 -4.28125 C 11.484375 -4.28125 12.484375 -4.625 13.203125 -5.3125 C 13.921875 -6.007812 14.28125 -6.945312 14.28125 -8.125 L 14.28125 -8.59375 L 10.59375 -8.59375 C 9.5625 -8.59375 8.785156 -8.398438 8.265625 -8.015625 C 7.742188 -7.628906 7.484375 -7.101562 7.484375 -6.4375 C 7.484375 -5.769531 7.710938 -5.242188 8.171875 -4.859375 C 8.640625 -4.472656 9.316406 -4.28125 10.203125 -4.28125 Z M 10.203125 -4.28125 "/></g></g></g><g fill="#fffdfd" fill-opacity="1"><g transform="translate(174.717582, 271.402686)"><g><path d="M 9.203125 0 L 2.796875 0 L 2.796875 -28 L 12.59375 -28 L 18.203125 -10.59375 L 19 -10.59375 L 24.59375 -28 L 34.40625 -28 L 34.40625 0 L 28 0 L 28 -17.203125 L 27.203125 -17.203125 L 21.59375 0 L 15.59375 0 L 10 -17.203125 L 9.203125 -17.203125 Z M 9.203125 0 "/></g></g></g><g fill="#fffdfd" fill-opacity="1"><g transform="translate(209.83389, 271.402686)"><g><path d="M 12.078125 0.40625 C 10.054688 0.40625 8.226562 -0.0507812 6.59375 -0.96875 C 4.96875 -1.894531 3.695312 -3.164062 2.78125 -4.78125 C 1.863281 -6.394531 1.40625 -8.203125 1.40625 -10.203125 C 1.40625 -12.203125 1.863281 -14.007812 2.78125 -15.625 C 3.695312 -17.238281 4.96875 -18.503906 6.59375 -19.421875 C 8.226562 -20.335938 10.054688 -20.796875 12.078125 -20.796875 C 14.109375 -20.796875 15.9375 -20.335938 17.5625 -19.421875 C 19.1875 -18.503906 20.457031 -17.238281 21.375 -15.625 C 22.300781 -14.007812 22.765625 -12.203125 22.765625 -10.203125 C 22.765625 -8.203125 22.300781 -6.394531 21.375 -4.78125 C 20.457031 -3.164062 19.1875 -1.894531 17.5625 -0.96875 C 15.9375 -0.0507812 14.109375 0.40625 12.078125 0.40625 Z M 12.078125 -5.203125 C 13.390625 -5.203125 14.488281 -5.664062 15.375 -6.59375 C 16.269531 -7.53125 16.71875 -8.734375 16.71875 -10.203125 C 16.71875 -11.671875 16.269531 -12.867188 15.375 -13.796875 C 14.488281 -14.734375 13.390625 -15.203125 12.078125 -15.203125 C 10.773438 -15.203125 9.675781 -14.734375 8.78125 -13.796875 C 7.882812 -12.867188 7.4375 -11.671875 7.4375 -10.203125 C 7.4375 -8.734375 7.882812 -7.53125 8.78125 -6.59375 C 9.675781 -5.664062 10.773438 -5.203125 12.078125 -5.203125 Z M 12.078125 -5.203125 "/></g></g></g><g fill="#fffdfd" fill-opacity="1"><g transform="translate(231.911487, 271.402686)"><g><path d="M 2.40625 0 L 2.40625 -20.40625 L 7.59375 -20.40625 L 8 -18.796875 L 8.203125 -18.796875 C 8.492188 -19.222656 8.957031 -19.597656 9.59375 -19.921875 C 10.238281 -20.242188 10.972656 -20.40625 11.796875 -20.40625 L 15.6875 -20.40625 L 15.6875 -14.6875 L 12.078125 -14.6875 C 9.648438 -14.6875 8.4375 -13.441406 8.4375 -10.953125 L 8.4375 0 Z M 2.40625 0 "/></g></g></g><g fill="#fffdfd" fill-opacity="1"><g transform="translate(246.069876, 271.402686)"><g><path d="M 12.078125 0.40625 C 10.054688 0.40625 8.226562 -0.0507812 6.59375 -0.96875 C 4.96875 -1.894531 3.695312 -3.164062 2.78125 -4.78125 C 1.863281 -6.394531 1.40625 -8.203125 1.40625 -10.203125 C 1.40625 -12.203125 1.863281 -14.007812 2.78125 -15.625 C 3.695312 -17.238281 4.96875 -18.503906 6.59375 -19.421875 C 8.226562 -20.335938 10.054688 -20.796875 12.078125 -20.796875 C 14.109375 -20.796875 15.9375 -20.335938 17.5625 -19.421875 C 19.1875 -18.503906 20.457031 -17.238281 21.375 -15.625 C 22.300781 -14.007812 22.765625 -12.203125 22.765625 -10.203125 C 22.765625 -8.203125 22.300781 -6.394531 21.375 -4.78125 C 20.457031 -3.164062 19.1875 -1.894531 17.5625 -0.96875 C 15.9375 -0.0507812 14.109375 0.40625 12.078125 0.40625 Z M 12.078125 -5.203125 C 13.390625 -5.203125 14.488281 -5.664062 15.375 -6.59375 C 16.269531 -7.53125 16.71875 -8.734375 16.71875 -10.203125 C 16.71875 -11.671875 16.269531 -12.867188 15.375 -13.796875 C 14.488281 -14.734375 13.390625 -15.203125 12.078125 -15.203125 C 10.773438 -15.203125 9.675781 -14.734375 8.78125 -13.796875 C 7.882812 -12.867188 7.4375 -11.671875 7.4375 -10.203125 C 7.4375 -8.734375 7.882812 -7.53125 8.78125 -6.59375 C 9.675781 -5.664062 10.773438 -5.203125 12.078125 -5.203125 Z M 12.078125 -5.203125 "/></g></g></g><g fill="#fffdfd" fill-opacity="1"><g transform="translate(268.147484, 271.402686)"><g><path d="M 10.15625 0 C 8.207031 0 6.726562 -0.476562 5.71875 -1.4375 C 4.707031 -2.394531 4.203125 -3.769531 4.203125 -5.5625 L 4.203125 -14.6875 L 1 -14.6875 L 1 -20.40625 L 4.203125 -20.40625 L 4.203125 -26.71875 L 10.234375 -26.71875 L 10.234375 -20.40625 L 14.84375 -20.40625 L 14.84375 -14.6875 L 10.234375 -14.6875 L 10.234375 -6.84375 C 10.234375 -6.332031 10.335938 -5.96875 10.546875 -5.75 C 10.765625 -5.539062 11.128906 -5.4375 11.640625 -5.4375 L 14.84375 -5.4375 L 14.84375 0 Z M 10.15625 0 "/></g></g></g><g fill="#fffdfd" fill-opacity="1"><g transform="translate(282.705833, 271.402686)"><g><path d="M 12.125 0.40625 C 10.09375 0.40625 8.265625 -0.0507812 6.640625 -0.96875 C 5.015625 -1.894531 3.734375 -3.164062 2.796875 -4.78125 C 1.867188 -6.394531 1.40625 -8.203125 1.40625 -10.203125 C 1.40625 -12.203125 1.867188 -14.007812 2.796875 -15.625 C 3.734375 -17.238281 5.015625 -18.503906 6.640625 -19.421875 C 8.265625 -20.335938 10.09375 -20.796875 12.125 -20.796875 C 14.039062 -20.796875 15.789062 -20.34375 17.375 -19.4375 C 18.96875 -18.53125 20.21875 -17.28125 21.125 -15.6875 C 22.03125 -14.101562 22.484375 -12.351562 22.484375 -10.4375 C 22.484375 -9.71875 22.414062 -9.050781 22.28125 -8.4375 L 7.40625 -8.4375 C 7.5625 -7.320312 8.078125 -6.382812 8.953125 -5.625 C 9.835938 -4.863281 10.894531 -4.484375 12.125 -4.484375 C 13.03125 -4.484375 13.800781 -4.65625 14.4375 -5 C 15.082031 -5.34375 15.5625 -5.703125 15.875 -6.078125 L 21.953125 -6.078125 C 21.691406 -5.171875 21.160156 -4.222656 20.359375 -3.234375 C 19.554688 -2.253906 18.453125 -1.398438 17.046875 -0.671875 C 15.648438 0.046875 14.007812 0.40625 12.125 0.40625 Z M 16.515625 -12.078125 C 16.359375 -13.203125 15.878906 -14.132812 15.078125 -14.875 C 14.273438 -15.625 13.289062 -16 12.125 -16 C 10.863281 -16 9.820312 -15.625 9 -14.875 C 8.175781 -14.132812 7.644531 -13.203125 7.40625 -12.078125 Z M 16.515625 -12.078125 "/></g></g></g></svg>